<svg xmlns="http://www.w3.org/2000/svg" version="1.1" xmlns:xlink="http://www.w3.org/1999/xlink" xmlns:svgjs="http://svgjs.dev/svgjs" viewBox="0 0 1422 800"><defs><linearGradient x1="50%" y1="0%" x2="50%" y2="100%" id="oooscillate-grad"><stop stop-color="hsl(105, 69%, 40%)" stop-opacity="1" offset="0%"></stop><stop stop-color="hsl(158, 94%, 27%)" stop-opacity="1" offset="100%"></stop></linearGradient></defs><g stroke-width="2" stroke="url(#oooscillate-grad)" fill="none" stroke-linecap="round"><path d="M 0 756 Q 355.5 0 711 400 Q 1066.5 800 1422 756" opacity="1.00"></path><path d="M 0 728 Q 355.5 0 711 400 Q 1066.5 800 1422 728" opacity="0.96"></path><path d="M 0 700 Q 355.5 0 711 400 Q 1066.5 800 1422 700" opacity="0.93"></path><path d="M 0 672 Q 355.5 0 711 400 Q 1066.5 800 1422 672" opacity="0.89"></path><path d="M 0 644 Q 355.5 0 711 400 Q 1066.5 800 1422 644" opacity="0.85"></path><path d="M 0 616 Q 355.5 0 711 400 Q 1066.5 800 1422 616" opacity="0.82"></path><path d="M 0 588 Q 355.5 0 711 400 Q 1066.5 800 1422 588" opacity="0.78"></path><path d="M 0 560 Q 355.5 0 711 400 Q 1066.5 800 1422 560" opacity="0.74"></path><path d="M 0 532 Q 355.5 0 711 400 Q 1066.5 800 1422 532" opacity="0.71"></path><path d="M 0 504 Q 355.5 0 711 400 Q 1066.5 800 1422 504" opacity="0.67"></path><path d="M 0 476 Q 355.5 0 711 400 Q 1066.5 800 1422 476" opacity="0.63"></path><path d="M 0 448 Q 355.5 0 711 400 Q 1066.5 800 1422 448" opacity="0.60"></path><path d="M 0 420 Q 355.5 0 711 400 Q 1066.5 800 1422 420" opacity="0.56"></path><path d="M 0 392 Q 355.5 0 711 400 Q 1066.5 800 1422 392" opacity="0.53"></path><path d="M 0 364 Q 355.5 0 711 400 Q 1066.5 800 1422 364" opacity="0.49"></path><path d="M 0 336 Q 355.5 0 711 400 Q 1066.5 800 1422 336" opacity="0.45"></path><path d="M 0 308 Q 355.5 0 711 400 Q 1066.5 800 1422 308" opacity="0.42"></path><path d="M 0 280 Q 355.5 0 711 400 Q 1066.5 800 1422 280" opacity="0.38"></path><path d="M 0 252 Q 355.5 0 711 400 Q 1066.5 800 1422 252" opacity="0.34"></path><path d="M 0 224 Q 355.5 0 711 400 Q 1066.5 800 1422 224" opacity="0.31"></path><path d="M 0 196 Q 355.5 0 711 400 Q 1066.5 800 1422 196" opacity="0.27"></path><path d="M 0 168 Q 355.5 0 711 400 Q 1066.5 800 1422 168" opacity="0.23"></path><path d="M 0 140 Q 355.5 0 711 400 Q 1066.5 800 1422 140" opacity="0.20"></path><path d="M 0 112 Q 355.5 0 711 400 Q 1066.5 800 1422 112" opacity="0.16"></path><path d="M 0 84 Q 355.5 0 711 400 Q 1066.5 800 1422 84" opacity="0.12"></path><path d="M 0 56 Q 355.5 0 711 400 Q 1066.5 800 1422 56" opacity="0.09"></path></g></svg>